<svg width="64" height="64" viewBox="0 0 64 64" fill="none" xmlns="http://www.w3.org/2000/svg">
<path d="M60.9882 2.82351L54.4 3.48234C53.6471 3.57645 53.0824 4.04704 52.8941 4.61175C51.5765 4.8941 50.4471 5.64704 49.5059 6.58822L11.7647 48.9412L2.44706 41.7882C2.07059 41.5059 1.41177 41.5059 1.12941 41.9765C0.84706 42.3529 0.941178 42.9176 1.31765 43.2941C2.44706 44.2353 -2.82353 40 12.5176 52.1412C11.8588 53.0823 11.4824 54.2118 11.4824 55.4353C11.4824 58.6353 14.0235 61.1765 17.2235 61.1765C20.4235 61.1765 22.9647 58.6353 22.9647 55.4353C22.9647 54.1176 22.4941 52.8941 21.7412 51.9529L52.5176 23.5294C55.0588 21.1765 55.0588 17.3176 52.7059 14.8706L48.4706 10.6353L50.9176 7.90586C51.4824 7.24704 52.3294 6.77645 53.1765 6.4941C53.5529 6.96469 54.0235 7.15292 54.5882 7.15292C54.7765 7.15292 54.0235 7.24704 61.3647 6.4941C62.4 6.39998 63.1529 5.45881 63.0588 4.42351C62.9647 3.48234 62.0235 2.72939 60.9882 2.82351ZM40 32.6588L33.7882 27.1059L39.7177 20.4235L46.4941 26.5412L40 32.6588ZM31.4353 40.5647L25.8824 35.9529L32.5647 28.5176L38.5882 33.8823L31.4353 40.5647ZM24.4706 46.9647L19.6706 42.8235L24.5647 37.3647L30.0235 41.8823L24.4706 46.9647ZM17.2235 49.6941C15.9059 49.6941 14.7765 50.1647 13.8353 50.8235L13.1765 50.1647L18.4471 44.2353L23.1529 48.2823L20.5176 50.7294C19.5765 50.0706 18.4471 49.6941 17.2235 49.6941ZM17.2235 59.2941C15.0588 59.2941 13.3647 57.5059 13.3647 55.4353C13.3647 53.2706 15.1529 51.5765 17.2235 51.5765C19.3882 51.5765 21.0824 53.3647 21.0824 55.4353C21.1765 57.6 19.3882 59.2941 17.2235 59.2941ZM51.3882 16.0941C53.0824 17.7882 52.9882 20.5176 51.2941 22.1176L47.9059 25.3176L40.9412 19.1059L47.2471 12.047L51.3882 16.0941Z" fill="white"/>
</svg>
