<svg width="64" height="64" viewBox="0 0 64 64" fill="none" xmlns="http://www.w3.org/2000/svg">
<path d="M38.7366 33.5384H33.8019C33.805 33.4938 33.8278 33.4554 33.8278 33.4098V29.8277C33.8278 29.8174 33.822 29.8088 33.822 29.7991H35.6047C36.5279 29.7991 37.3047 29.1116 37.419 28.1973L39.9797 7.65441C40.4145 3.85427 36.1348 1.48828 31.9993 1.48828C27.866 1.48828 23.588 3.8731 24.0207 7.65441L24.0225 7.65971C24.0229 7.66465 24.0221 7.66904 24.0225 7.67397L26.5814 28.1971C26.6957 29.1114 27.4725 29.799 28.3957 29.799H30.1765C30.1765 29.8088 30.1707 29.8172 30.1707 29.8275V33.4097C30.1707 33.4552 30.1936 33.4936 30.1967 33.5382H25.2635C22.9511 33.5382 21.069 35.3971 21.069 37.6828V53.9043C21.069 54.4828 21.3422 55.0257 21.8046 55.3704L30.9063 62.1489C31.2313 62.39 31.6153 62.5114 31.9993 62.5114C32.3833 62.5114 32.7671 62.39 33.0922 62.1489L42.1957 55.3704C42.6582 55.0257 42.9314 54.4828 42.9314 53.9043V37.6828C42.9312 35.3973 41.049 33.5384 38.7366 33.5384ZM27.6528 7.24024C27.537 6.21422 29.7715 5.14561 31.9993 5.14561C33.66 5.14561 36.4789 6.02954 36.3471 7.23804L33.9904 26.142H30.01L27.6528 7.24024ZM39.2741 52.9867L31.9991 58.4027L24.7259 52.9867V37.6832C24.7259 37.4135 24.9669 37.1957 25.2634 37.1957H38.7366C39.0331 37.1957 39.2741 37.4135 39.2741 37.6832V52.9867Z" fill="#2DA884"/>
</svg>
